<?xml version="1.0" encoding="utf-8"?>
<!-- Generator: Adobe Illustrator 16.0.0, SVG Export Plug-In . SVG Version: 6.00 Build 0)  -->
<!DOCTYPE svg PUBLIC "-//W3C//DTD SVG 1.1//EN" "http://www.w3.org/Graphics/SVG/1.1/DTD/svg11.dtd">
<svg version="1.1" id="Layer_1" xmlns="http://www.w3.org/2000/svg" xmlns:xlink="http://www.w3.org/1999/xlink" x="0px" y="0px"
	 width="50px" height="50px" viewBox="0 0 50 50" enable-background="new 0 0 50 50" xml:space="preserve">
<path stroke="#000000" stroke-miterlimit="10" d="M33.08,24.065c0,4.799-3.89,8.688-8.688,8.688l0,0
	c-4.798,0-8.688-3.889-8.688-8.688v-0.17c0-4.799,3.89-8.688,8.688-8.688l0,0c4.799,0,8.688,3.89,8.688,8.688V24.065z"/>
<path fill="#FFFFFF" stroke="#FFFFFF" stroke-miterlimit="10" d="M26.648,20.941c0,1.246-1.011,2.258-2.257,2.258l0,0
	c-1.247,0-2.257-1.012-2.257-2.258v-0.256c0-1.246,1.01-2.257,2.257-2.257l0,0c1.246,0,2.257,1.011,2.257,2.257V20.941z"/>
<path fill="#FFFFFF" stroke="#FFFFFF" stroke-miterlimit="10" d="M28.821,28.351c0,0,0.494,0-4.43,0c-1.602,0-4.429,0.134-4.429,0
	c0-2.657,1.983-4.812,4.429-4.812C26.839,23.539,28.821,25.694,28.821,28.351z"/>
</svg>
